<svg xmlns="http://www.w3.org/2000/svg" viewBox="0 0 79.375 79.375"><g transform="rotate(2.914 1536.835 -960.094)"><circle r="21.167" cy="95.917" cx="95.25" fill="#ff7f2a"/><path d="M60.854 143.542s21.167-2.646 26.458-5.292c23.428-11.714 18.521-23.813 18.521-23.813h-18.52s4.062 6.521-5.292 15.876c-10.584 10.583-21.167 13.229-21.167 13.229z" fill="#ffb380" fill-rule="evenodd"/><path d="M111.183 150.014s-1.989-7.125-2.92-14.744c-1.866-15.239-1.12-18.273-1.12-18.273l-20.54 2.46s4.545 13.55 13.066 21.628c8.521 8.077 12.009 9.63 11.514 8.93z" fill="#ffb380" fill-rule="evenodd"/><path fill="#ff7f2a" d="M74.083 95.917h42.333v26.458H74.083z"/><path d="M74.083 122.375c0 15.875-13.229 21.167-13.229 21.167s17.91-1.73 23.813-10.584l10.583-15.875zM92.604 122.375C104.07 138.25 127 143.542 127 143.542s-3.883-2.843-7.323-9.45c-3.593-6.9-3.252-11.82-3.26-14.363z" fill="#ff7f2a" fill-rule="evenodd"/><path d="M87.941 154.225s-.117-7.643-1.414-15.474c-2.593-15.662-4.205-18.46-4.205-18.46l20.866-3.455s-.528 14.756-6.543 25.22c-6.015 10.464-8.986 13.006-8.704 12.169z" fill="#ff7f2a" fill-rule="evenodd"/><circle r="5.292" cy="114.438" cx="84.667" fill="#fca"/><circle r="5.292" cy="111.792" cx="108.479" fill="#fca"/></g><path fill="none" d="M0 0h79.375v79.375H0z"/></svg>
